#!OML:ASF E:\Mandelcareful walks\Project 1\Capture day 1\Session 1\Subject1.ASF
:FULLY-SPECIFIED
:DEGREES
194
root 6.06389 15.7936 -0.250461 -167.668 -71.9201 174.458
lowerback 24.725 1.00171 -0.922601
upperback 6.27011 0.568884 1.2675
thorax -6.8448 0.0312508 1.77623
lowerneck -25.177 -7.02726 -10.0335
upperneck 17.3787 -7.22469 5.13107
head 10.227 -3.39539 2.27578
rclavicle 2.50469e-014 -2.26615e-014
rhumerus -21.6243 15.3073 -87.5446
rradius 58.9544
rwrist -5.61666
rhand -10.5113 -31.2974
rfingers 7.12502
rthumb 15.4912 -60.6968
lclavicle 2.50469e-014 -2.26615e-014
lhumerus -28.7678 -44.7199 98.3189
lradius 66.3799
lwrist 5.5513
lhand -10.327 -7.6234
lfingers 7.12502
lthumb 15.6687 21.7621
rfemur -33.7834 -10.2897 5.46693
rtibia 42.1501
rfoot -9.57207 -10.4774
rtoes -15.5187
lfemur -24.2891 18.8579 -7.86567
ltibia 49.2886
lfoot -22.2292 6.98385
ltoes -16.32
195
root 6.05214 15.7979 -0.246977 -167.373 -71.9134 174.197
lowerback 24.7877 0.9949 -1.06012
upperback 6.13906 0.541248 1.29441
thorax -7.02178 0.0269089 1.89362
lowerneck -24.5641 -7.77941 -10.526
upperneck 16.9466 -8.31025 5.86634
head 10.1119 -3.84589 2.44148
rclavicle -3.81667e-014 8.34896e-015
rhumerus -21.5991 15.2712 -87.771
rradius 58.6901
rwrist -5.80713
rhand -10.9744 -30.4776
rfingers 7.12502
rthumb 15.0451 -59.9109
lclavicle -3.81667e-014 8.34896e-015
lhumerus -28.6173 -45.6163 98.5611
lradius 65.3143
lwrist 4.46052
lhand -9.42295 -7.4152
lfingers 7.12502
lthumb 16.5393 21.8999
rfemur -33.7316 -10.3513 5.35691
rtibia 42.0217
rfoot -9.55999 -10.3185
rtoes -15.3357
lfemur -24.2428 18.8108 -7.9947
ltibia 49.2303
lfoot -22.2932 7.00174
ltoes -16.0987
196
root 6.03184 15.8078 -0.24594 -167.17 -71.8966 174.051
lowerback 24.563 0.962638 -1.14122
upperback 6.16057 0.485663 1.31577
thorax -6.88303 0.00113504 1.97895
lowerneck -24.1961 -8.63609 -11.1659
upperneck 16.467 -9.51841 6.86787
head 10.0717 -4.33005 2.69572
rclavicle 2.10712e-014 -7.95139e-016
rhumerus -21.3732 15.2473 -87.9559
rradius 58.5978
rwrist -5.6184
rhand -10.6899 -30.5462
rfingers 7.12502
rthumb 15.3192 -59.9588
lclavicle 2.10712e-014 -7.95139e-016
lhumerus -28.1733 -46.5616 98.6483
lradius 64.325
lwrist 3.68712
lhand -8.74436 -7.16955
lfingers 7.12502
lthumb 17.1925 22.0899
rfemur -33.6299 -10.4704 5.28966
rtibia 41.8656
rfoot -9.5563 -10.3133
rtoes -15.6442
lfemur -24.1363 18.804 -8.0942
ltibia 49.1185
lfoot -22.2986 7.04417
ltoes -16.2875
197
root 6.01283 15.8183 -0.246714 -167.236 -71.9711 174.132
lowerback 24.3994 0.837695 -1.16821
upperback 6.19022 0.323823 1.37665
thorax -6.76101 -0.0774843 2.10778
lowerneck -23.4137 -9.29549 -11.9121
upperneck 15.7016 -10.4625 7.91559
head 9.86347 -4.71153 3.03661
rclavicle -6.12257e-014 6.75868e-015
rhumerus -20.9728 15.6004 -88.1817
rradius 58.3392
rwrist -5.62324
rhand -10.2074 -31.417
rfingers 7.12502
rthumb 15.7839 -60.7935
lclavicle -6.12257e-014 6.75868e-015
lhumerus -27.7874 -47.7548 98.7234
lradius 63.4919
lwrist 3.42741
lhand -8.51006 -6.83473
lfingers 7.12502
lthumb 17.418 22.4049
rfemur -33.4139 -10.6083 5.3123
rtibia 41.6893
rfoot -9.5625 -10.3169
rtoes -15.6169
lfemur -24.0159 18.6998 -8.07482
ltibia 48.9783
lfoot -22.2259 7.15329
ltoes -16.3012
198
root 6.00231 15.8245 -0.250084 -167.706 -72.0352 174.602
lowerback 24.4562 0.699155 -1.14403
upperback 6.12048 0.165311 1.50109
thorax -6.85955 -0.150529 2.27812
lowerneck -23.4449 -9.9067 -12.1234
upperneck 15.6464 -11.2703 8.10166
head 9.95837 -5.07333 2.98791
rclavicle -2.0276e-014 3.4191e-014
rhumerus -20.6381 16.2548 -88.5033
rradius 57.7469
rwrist -5.6767
rhand -10.4081 -31.6358
rfingers 7.12502
rthumb 15.5906 -61.0275
lclavicle -2.0276e-014 3.4191e-014
lhumerus -27.8238 -49.2504 99.0966
lradius 62.8215
lwrist 3.64219
lhand -9.16087 -6.61219
lfingers 7.12502
lthumb 16.7916 22.6817
rfemur -33.2128 -10.6271 5.47634
rtibia 41.5091
rfoot -9.59378 -10.1978
rtoes -15.1646
lfemur -23.8947 18.6273 -7.88432
ltibia 48.8056
lfoot -22.104 7.20071
ltoes -16.0611
199
root 5.99026 15.8322 -0.257029 -167.884 -72.0031 174.786
lowerback 24.5747 0.59587 -1.23802
upperback 5.97772 0.0271005 1.59189
thorax -7.07052 -0.20775 2.4757
lowerneck -22.9079 -10.4138 -12.6255
upperneck 15.2352 -11.952 8.57346
head 9.85941 -5.38161 3.1233
rclavicle 3.49861e-014 -2.78299e-015
rhumerus -20.3396 16.8435 -88.945
rradius 56.8621
rwrist -5.25402
rhand -10.7144 -31.1709
rfingers 7.12502
rthumb 15.2956 -60.5853
lclavicle 3.49861e-014 -2.78299e-015
lhumerus -28.0318 -50.6152 99.6235
lradius 62.2257
lwrist 3.85062
lhand -9.40996 -6.41351
lfingers 7.12502
lthumb 16.5518 22.9006
rfemur -33.0986 -10.5807 5.551
rtibia 41.3371
rfoot -9.57823 -10.1121
rtoes -15.1608
lfemur -23.7787 18.6194 -7.79589
ltibia 48.7096
lfoot -22.1249 7.17829
ltoes -15.847
200
root 5.97024 15.8439 -0.265476 -166.632 -71.9774 173.514
lowerback 24.4417 0.499328 -1.63598
upperback 5.89239 -0.188382 1.50326
thorax -7.0854 -0.299531 2.67033
lowerneck -23.0872 -10.8294 -12.6787
upperneck 15.5035 -12.5054 8.56789
head 10.0495 -5.63128 3.01914
rclavicle -3.89618e-014 1.11319e-014
rhumerus -20.0219 17.3375 -89.3982
rradius 56.1348
rwrist -4.85164
rhand -10.6449 -31.1564
rfingers 7.12502
rthumb 15.3625 -60.5657
lclavicle -3.89618e-014 1.11319e-014
lhumerus -27.9316 -51.5715 99.9259
lradius 61.5286
lwrist 3.33613
lhand -8.61976 -6.30803
lfingers 7.12502
lthumb 17.3124 22.9409
rfemur -32.9758 -10.7838 5.13808
rtibia 41.1826
rfoot -9.48204 -10.1083
rtoes -15.6411
lfemur -23.6771 18.4511 -8.25551
ltibia 48.5831
lfoot -22.1508 7.33622
ltoes -15.9743
201
root 5.98501 15.8461 -0.279838 -169.054 -72.0859 176.461
lowerback 24.1941 0.372628 -0.98165
upperback 5.76834 -0.151968 1.79783
thorax -7.09791 -0.283678 2.60364
lowerneck -22.4504 -11.2174 -13.409
upperneck 14.5549 -13.0721 9.71609
head 9.81151 -5.83798 3.45117
rclavicle 2.18663e-014 -1.59028e-014
rhumerus -19.6367 17.8834 -89.6916
rradius 55.6784
rwrist -4.60098
rhand -10.3333 -31.387
rfingers 7.12502
rthumb 15.6626 -60.7731
lclavicle 2.18663e-014 -1.59028e-014
lhumerus -27.4129 -52.3295 100.012
lradius 60.7206
lwrist 2.49498
lhand -7.90145 -6.50479
lfingers 7.12502
lthumb 18.0037 22.6819
rfemur -33.3768 -10.1839 6.25331
rtibia 41.0116
rfoot -9.44617 -10.6783
rtoes -15.4081
lfemur -24.2125 18.5649 -7.26649
ltibia 48.5094
lfoot -21.8049 7.40961
ltoes -16.3094
202
root 5.97732 15.8575 -0.295472 -170.146 -72.0992 177.665
lowerback 24.2179 0.114074 -0.391873
upperback 5.6419 -0.343798 1.63488
thorax -7.24311 -0.377548 2.14442
lowerneck -23.0223 -11.4778 -13.2017
upperneck 15.0692 -13.4653 9.7115
head 10.1239 -5.98264 3.32147
rclavicle 1.2921e-014 -4.69132e-014
rhumerus -19.5703 18.4459 -90.5148
rradius 55.2953
rwrist -4.24734
rhand -9.93652 -31.4676
rfingers 7.12502
rthumb 16.0448 -60.8233
lclavicle 1.2921e-014 -4.69132e-014
lhumerus -27.537 -53.0526 100.046
lradius 60.2545
lwrist 2.25759
lhand -7.72573 -6.62469
lfingers 7.12502
lthumb 18.1727 22.5464
rfemur -33.279 -9.95563 6.70441
rtibia 40.7931
rfoot -9.5067 -10.6754
rtoes -14.9315
lfemur -24.0975 18.5758 -6.79219
ltibia 48.2625
lfoot -21.6773 7.37582
ltoes -16.4767
203
root 5.94853 15.8776 -0.309384 -169.796 -72.0303 177.186
lowerback 24.0348 -0.0445538 -0.441689
upperback 5.59933 -0.562441 1.52418
thorax -7.18874 -0.478668 2.11316
lowerneck -21.8086 -11.4918 -14.2519
upperneck 13.8337 -13.5487 11.2289
head 9.69802 -5.97838 4.04119
rclavicle -1.53064e-014 8.74653e-015
rhumerus -19.7065 19.4406 -91.0362
rradius 55.0824
rwrist -4.24979
rhand -9.83494 -31.588
rfingers 7.12502
rthumb 16.1426 -60.9358
lclavicle -1.53064e-014 8.74653e-015
lhumerus -27.9488 -53.5102 100.471
lradius 60.1704
lwrist 2.47225
lhand -7.61519 -6.42569
lfingers 7.12502
lthumb 18.2791 22.7355
rfemur -32.9205 -10.126 6.5593
rtibia 40.5552
rfoot -9.48663 -10.5176
rtoes -15.0121
lfemur -23.63 18.4653 -6.8942
ltibia 48.0003
lfoot -21.6544 7.41335
ltoes -16.2337
204
root 5.9042 15.9046 -0.320568 -168.695 -72.0634 175.862
lowerback 23.5396 -0.133856 -0.666369
upperback 5.75544 -0.745592 1.42656
thorax -6.75564 -0.570501 2.17524
lowerneck -22.5546 -11.74 -14.2168
upperneck 14.4924 -13.7833 10.8997
head 10.0566 -6.08197 3.84811
rclavicle -7.49418e-014 2.50469e-014
rhumerus -19.6563 20.2985 -91.2588
rradius 55.0194
rwrist -4.52635
rhand -9.77627 -31.9453
rfingers 7.12502
rthumb 16.1991 -61.2885
lclavicle -7.49418e-014 2.50469e-014
lhumerus -27.7933 -53.9914 100.609
lradius 60.2095
lwrist 2.55308
lhand -7.38053 -6.44294
lfingers 7.12502
lthumb 18.5048 22.6969
rfemur -32.3226 -10.6566 6.10101
rtibia 40.2302
rfoot -9.43613 -10.1926
rtoes -15.4722
lfemur -22.9535 18.1486 -7.31791
ltibia 47.4733
lfoot -21.5823 7.65514
ltoes -16.2829
205
root 5.91024 15.9194 -0.341809 -169.605 -72.288 177.11
lowerback 23.6705 -0.235975 -0.568207
upperback 5.34293 -0.792905 1.70474
thorax -7.27079 -0.571156 2.44653
lowerneck -22.6411 -11.8087 -14.4473
upperneck 14.8199 -13.8221 10.8934
head 10.2099 -6.10543 3.86938
rclavicle -3.57812e-014 9.54166e-015
rhumerus -20.2532 21.147 -91.5819
rradius 55.1432
rwrist -4.9295
rhand -9.56914 -32.2886
rfingers 7.12502
rthumb 16.3985 -61.6154
lclavicle -3.57812e-014 9.54166e-015
lhumerus -27.8999 -53.5816 101.093
lradius 60.4522
lwrist 3.93339
lhand -4.70463 -6.62894
lfingers 7.12502
lthumb 21.0772 22.2456
rfemur -32.419 -10.3986 6.65245
rtibia 39.9007
rfoot -9.24727 -10.6787
rtoes -15.5645
lfemur -23.1556 17.9328 -6.88849
ltibia 46.9343
lfoot -21.127 7.99698
ltoes -16.4836
206
root 5.85811 15.9565 -0.362257 -167.993 -72.2825 175.356
lowerback 23.2624 -0.299975 -1.0484
upperback 5.23785 -0.977534 1.60536
thorax -7.16234 -0.644597 2.65764
lowerneck -22.9698 -11.9094 -14.5207
upperneck 15.3019 -13.8926 10.7103
head 10.4377 -6.14337 3.78914
rclavicle -5.56597e-015 2.98177e-014
rhumerus -20.7129 21.998 -91.9472
rradius 55.0705
rwrist -5.24962
rhand -9.4025 -31.8504
rfingers 7.12502
rthumb 16.559 -61.1639
lclavicle -5.56597e-015 2.98177e-014
lhumerus -28.049 -53.2775 101.594
lradius 60.4349
lwrist 4.59808
lhand -4.65294 -7.40118
lfingers 7.12502
lthumb 21.1268 21.4678
rfemur -31.8388 -10.9022 6.07977
rtibia 39.51
rfoot -9.15758 -10.1592
rtoes -15.4777
lfemur -22.4322 17.6563 -7.47511
ltibia 46.2244
lfoot -21.1813 8.31242
ltoes -16.189
207
root 5.83099 15.9823 -0.389329 -167.568 -72.1965 174.796
lowerback 23.1732 -0.290886 -1.37659
upperback 5.13219 -1.03061 1.60505
thorax -7.22409 -0.658025 2.86038
lowerneck -23.2692 -12.0132 -14.5437
upperneck 15.8463 -13.9622 10.3964
head 10.669 -6.19329 3.65469
rclavicle -2.36554e-014 2.38542e-015
rhumerus -21.1365 22.8975 -92.2931
rradius 55.0917
rwrist -5.37802
rhand -9.39717 -30.8825
rfingers 7.12502
rthumb 16.5641 -60.1955
lclavicle -2.36554e-014 2.38542e-015
lhumerus -28.3188 -53.1983 102.114
lradius 60.4079
lwrist 4.21539
lhand -6.95245 -8.04374
lfingers 7.12502
lthumb 18.9166 21.0564
rfemur -31.4074 -10.778 5.9027
rtibia 39.1873
rfoot -9.07561 -9.86632
rtoes -14.467
lfemur -21.8177 17.5372 -7.57022
ltibia 45.6153
lfoot -21.0705 8.46737
ltoes -15.7805
208
root 5.81058 16.0051 -0.413517 -167.602 -72.2378 174.812
lowerback 23.1096 -0.353931 -1.48629
upperback 5.03886 -1.12616 1.62521
thorax -7.2857 -0.695999 2.97264
lowerneck -23.2032 -12.0424 -14.8491
upperneck 15.7306 -14.0227 10.9037
head 10.6937 -6.18727 3.8731
rclavicle 1.53064e-014 3.57812e-015
rhumerus -21.6723 23.9545 -92.6768
rradius 55.5385
rwrist -5.59931
rhand -9.28973 -30.6995
rfingers 7.12502
rthumb 16.6675 -60.0039
lclavicle 1.53064e-014 3.57812e-015
lhumerus -27.8462 -52.3297 101.805
lradius 60.5256
lwrist 5.25483
lhand -5.93834 -9.29485
lfingers 7.12502
lthumb 19.8916 19.7072
rfemur -31.0612 -10.6034 5.92296
rtibia 38.8498
rfoot -9.03255 -9.64764
rtoes -13.4297
lfemur -21.3799 17.3921 -7.49509
ltibia 44.9807
lfoot -20.864 8.60566
ltoes -15.8244
